<?xml version="1.0" encoding="utf-8"?><svg xmlns="http://www.w3.org/2000/svg" font-family="Andale Mono,AndaleMono,Consolas,monospace" width="975px" height="550px" font-size="16px">
<style>
.keyColor {fill: #ffa657;}
.valueColor {fill: #a5d6ff;}
.addColor {fill: #3fb950;}
.delColor {fill: #f85149;}
.commentColor {fill: #8b949e;}
text, tspan {white-space: pre;}
</style>

<rect width="970px" height="530px" fill="#161b22" rx="15"/>

<text x="15" y="30" fill="#c9d1d9" class="ascii">
<tspan x="15" y="30">       .--.      </tspan>
<tspan x="15" y="50">      |o_o |     </tspan>
<tspan x="15" y="70">      |:_/ |     </tspan>
<tspan x="15" y="90">     //   \ \    </tspan>
<tspan x="15" y="110">    (|     | )   </tspan>
<tspan x="15" y="130">   /'\_   _/`\  </tspan>
<tspan x="15" y="150">   \___)=(___/   </tspan>
<tspan x="15" y="170">                  </tspan>
<tspan x="15" y="190">shashwat@github:~$ fetch</tspan>
<tspan x="15" y="210">────────────────────────────</tspan>
<tspan x="15" y="230">name     : Shashwat Srivastava</tspan>
<tspan x="15" y="250">role     : EECS @ IIT Ropar</tspan>
<tspan x="15" y="270">                  </tspan>
<tspan x="15" y="290">                  </tspan>
<tspan x="15" y="310">                  </tspan>
<tspan x="15" y="330">                  </tspan>
<tspan x="15" y="350">                  </tspan>
<tspan x="15" y="370">                  </tspan>
<tspan x="15" y="390">                  </tspan>
<tspan x="15" y="410">                  </tspan>
<tspan x="15" y="430">                  </tspan>
<tspan x="15" y="450">                  </tspan>
<tspan x="15" y="470">                  </tspan>
<tspan x="15" y="490">                  </tspan>
<tspan x="15" y="510">                  </tspan>
</text>

<text x="370" y="30" fill="#c9d1d9">
<tspan x="370" y="30">shashwat39</tspan>
<tspan x="370" y="50">──────────</tspan>
<tspan x="370" y="70">OS          : Windows 11, iOS</tspan>
<tspan x="370" y="90">Uptime      : 22 years, 10 months, 0 days</tspan>
<tspan x="370" y="110">Host        : Indian Institute of Technology Ropar</tspan>
<tspan x="370" y="130">Kernel      : Electrical Engineering and Computer Science</tspan>
<tspan x="370" y="150">Shell       : bash / zsh</tspan>
<tspan x="370" y="170"/>
<tspan x="370" y="190">Languages   : C++, Python, JavaScript, Go, R, Java</tspan>
<tspan x="370" y="210">Markup      : HTML, CSS, JSON, XML, LaTeX, YAML, Markdown</tspan>
<tspan x="370" y="230">Human       : English, Hindi</tspan>
<tspan x="370" y="250"/>
<tspan x="370" y="270">Email       : shashwatsrivastava2021@gmail.com</tspan>
<tspan x="370" y="290">LinkedIn    : shashwat39</tspan>
<tspan x="370" y="310">Discord     : kaneki5978</tspan>
<tspan x="370" y="330">Stats</tspan>
<tspan x="370" y="350">──────────</tspan>
<tspan x="370" y="370">Repos       : 23</tspan>
<tspan x="370" y="390">Contributed : 23</tspan>
<tspan x="370" y="410">Commits     : 138    </tspan>
<tspan x="370" y="430">Stars       : 15</tspan>
<tspan x="370" y="450">Followers   : 10  </tspan>
<tspan x="370" y="470">Lines       : 742,966</tspan>
<tspan x="370" y="490">Added       : 744,995++</tspan>
<tspan x="370" y="510">Deleted     : 2,029--</tspan>
</text>

</svg>