<?xml version="1.0" encoding="utf-8"?><svg xmlns="http://www.w3.org/2000/svg" font-family="Andale Mono,AndaleMono,Consolas,monospace" width="975px" height="550px" font-size="16px">
<style>
.keyColor {fill: #ffa657;}
.valueColor {fill: #a5d6ff;}
.addColor {fill: #3fb950;}
.delColor {fill: #f85149;}
.commentColor {fill: #8b949e;}
text, tspan {white-space: pre;}
</style>

<rect width="970px" height="530px" fill="#161b22" rx="15"/>

<text x="15" y="30" fill="#c9d1d9" class="ascii">
<tspan x="15" y="30">       .--.      </tspan>
<tspan x="15" y="50">      |o_o |     </tspan>
<tspan x="15" y="70">      |:_/ |     </tspan>
<tspan x="15" y="90">     //   \ \    </tspan>
<tspan x="15" y="110">    (|     | )   </tspan>
<tspan x="15" y="130">   /'\_   _/`\  </tspan>
<tspan x="15" y="150">   \___)=(___/   </tspan>
<tspan x="15" y="170">                  </tspan>
<tspan x="15" y="190">shashwat@github:~$ fetch</tspan>
<tspan x="15" y="210">────────────────────────────</tspan>
<tspan x="15" y="230">name     : Shashwat Srivastava</tspan>
<tspan x="15" y="250">role     : EECS @ IIT Ropar</tspan>
<tspan x="15" y="270">stack    : C++, Python, JavaScript</tspan>
<tspan x="15" y="290">contact  : github / linkedin / email</tspan>
<tspan x="15" y="310">focus    : software, systems, automation</tspan>
<tspan x="15" y="330">                  </tspan>
<tspan x="15" y="350"># dynamic stats on the right →</tspan>
<tspan x="15" y="370">                  </tspan>
<tspan x="15" y="390"># profile refreshes daily</tspan>
<tspan x="15" y="410">                  </tspan>
<tspan x="15" y="430"># generated via today.py</tspan>
<tspan x="15" y="450">                  </tspan>
<tspan x="15" y="470">                  </tspan>
<tspan x="15" y="490">                  </tspan>
<tspan x="15" y="510">                  </tspan>
</text>

<text x="370" y="30" fill="#c9d1d9">
<tspan x="370" y="30">shashwat39</tspan>
<tspan x="370" y="50">──────────</tspan>
<tspan x="370" y="70">OS          : Windows 11, iOS</tspan>
<tspan x="370" y="90">Uptime      : AGE_PLACEHOLDER</tspan>
<tspan x="370" y="110">Host        : Indian Institute of Technology Ropar</tspan>
<tspan x="370" y="130">Kernel      : Electrical Engineering and Computer Science</tspan>
<tspan x="370" y="150">Shell       : GitHub Actions / today.py</tspan>
<tspan x="370" y="170"></tspan>
<tspan x="370" y="190">Languages   : C++, Python, JavaScript, R, Java</tspan>
<tspan x="370" y="210">Markup      : HTML, CSS, JSON, XML, LaTeX, YAML, Markdown</tspan>
<tspan x="370" y="230">Human       : English, Hindi</tspan>
<tspan x="370" y="250"></tspan>
<tspan x="370" y="270">Email       : shashwatsrivastava2021@gmail.com</tspan>
<tspan x="370" y="290">LinkedIn    : shashwat39</tspan>
<tspan x="370" y="310">Discord     : kaneki5978</tspan>
<tspan x="370" y="330">Stats</tspan>
<tspan x="370" y="350">──────────</tspan>
<tspan x="370" y="370">Repos       : REPOS_PLACEHOLDER</tspan>
<tspan x="370" y="390">Contributed : CONTRIB_PLACEHOLDER</tspan>
<tspan x="370" y="410">Commits     : COMMITS_PLACEHOLDER</tspan>
<tspan x="370" y="430">Stars       : STARS_PLACEHOLDER</tspan>
<tspan x="370" y="450">Followers   : FOLLOWERS_PLACEHOLDER</tspan>
<tspan x="370" y="470">Lines       : LOC_TOTAL_PLACEHOLDER</tspan>
<tspan x="370" y="490">Added       : LOC_ADD_PLACEHOLDER</tspan>
<tspan x="370" y="510">Deleted     : LOC_DEL_PLACEHOLDER</tspan>
</text>

</svg>
